:SAMPLES-PER-SECOND 30
:FULLY-SPECIFIED
:DEGREES
790
root  -67.0322 38.9293 -2.54522 -18.1897 -85.407 20.974
RightUpLeg  -21.7084 -12.4861 -6.08915
RightLeg  37.3336 4.91457 3.77991
RightFoot  -10.8312 -0.103165 4.76112
RightToes  5.82063e-011 0 -3.6325e-017
Spine  26.22 -1.28113 3.26944
Spine1  4.54907 -0.916005 1.76363
HEad  -16.2677 -0.306475 -3.76052
LeftShoulder1  1.3333 -0.98809 -23.401
LeftArm  -1.63128 -34.0572 -46.625
LeftForeArm  -0.83013 -46.9829 -12.0745
LeftHand  -0.0382996 7.09209 -0.00227963
RightShoulder  0.532096 -1.13451 15.852
RightArm  -3.66381 34.4479 25.0491
RightForeArm  -20.0391 55.4934 18.1144
RightHand  -0.222396 3.61774 -3.07089
LeftUpLeg  -26.8682 12.6404 0.963169
LeftLeg  13.2722 -1.01298 -3.13421
LeftFoot  9.24202 -0.128028 0.535601
LeftToes  1.68253e-010 -3.2327e-011 -2.69673e-012
791
root  -67.1511 38.5156 -2.46001 -34.2573 -85.4138 37.0087
RightUpLeg  -27.7011 -13.4208 -7.76209
RightLeg  47.7491 4.97077 5.50832
RightFoot  -6.93341 -0.423594 9.23334
RightToes  5.82063e-011 0 -3.6325e-017
Spine  29.6546 -1.13773 1.07689
Spine1  5.29113 -1.04827 1.46383
HEad  -18.0235 -0.340015 -2.52831
LeftShoulder1  1.33078 -1.07825 -22.7512
LeftArm  -2.57737 -35.8194 -46.6821
LeftForeArm  -0.832831 -44.7532 -11.1687
LeftHand  -0.0623911 8.04409 -0.774631
RightShoulder  0.542787 -1.10936 16.1579
RightArm  -1.33149 39.7561 26.5603
RightForeArm  -23.3 50.0983 14.9853
RightHand  -0.366216 5.19861 -4.34304
LeftUpLeg  -29.7842 17.2099 -2.43025
LeftLeg  18.6073 -4.95873 -2.94991
LeftFoot  7.49103 -0.206441 0.967753
LeftToes  1.68253e-010 -3.2327e-011 -2.69673e-012
792
root  -67.2836 38.1875 -2.37417 -52.3057 -84.6214 55.2238
RightUpLeg  -33.2047 -14.8136 -9.56522
RightLeg  55.1513 4.39918 6.34276
RightFoot  -1.57112 -0.958004 11.3904
RightToes  5.82063e-011 0 -3.6325e-017
Spine  32.9634 -0.990673 -0.10142
Spine1  6.46733 -0.751446 0.0123392
HEad  -20.8766 -1.19761 -1.9565
LeftShoulder1  1.48927 -1.85719 -21.4099
LeftArm  -2.77127 -38.7672 -47.3816
LeftForeArm  -1.35592 -41.1281 -9.85729
LeftHand  -0.0661878 7.89922 -0.816685
RightShoulder  0.645949 -0.536751 15.0332
RightArm  -1.93554 42.5467 28.1041
RightForeArm  -23.4731 45.3446 12.7661
RightHand  -0.381656 6.0024 -4.1938
LeftUpLeg  -31.8099 20.0514 -5.68774
LeftLeg  21.858 -7.31423 -3.02645
LeftFoot  6.64882 -0.360453 2.02278
LeftToes  1.68253e-010 -3.2327e-011 -2.69673e-012
793
root  -67.3727 37.9882 -2.34504 -66.2662 -84.7744 69.6226
RightUpLeg  -37.0684 -15.101 -9.41742
RightLeg  55.6387 3.75464 5.52929
RightFoot  0.614566 -0.866131 8.22033
RightToes  5.82063e-011 0 -3.6325e-017
Spine  36.2618 -0.963153 0.175229
Spine1  7.68026 0.247939 -2.49782
HEad  -24.6259 -2.04255 -1.9335
LeftShoulder1  1.66427 -2.72153 -20.2386
LeftArm  -2.62297 -42.1824 -47.9311
LeftForeArm  -2.85377 -37.2938 -8.70864
LeftHand  -0.0232407 6.39433 0.959873
RightShoulder  0.679409 -0.223758 14.0097
RightArm  -1.55084 45.8575 29.6455
RightForeArm  -24.6187 39.9758 10.7435
RightHand  -0.594047 7.77487 -5.58686
LeftUpLeg  -33.457 22.6828 -7.00472
LeftLeg  24.1107 -8.42733 -3.75861
LeftFoot  5.4788 -0.373606 2.29864
LeftToes  1.68253e-010 -3.2327e-011 -2.69673e-012
794
root  -67.3823 37.9466 -2.27906 -56.9739 -85.0081 62.5671
RightUpLeg  -40.0263 -16.7418 -7.45746
RightLeg  48.6962 3.57558 3.99992
RightFoot  -1.51257 -0.804644 9.33161
RightToes  5.82063e-011 0 -3.6325e-017
Spine  39.7565 -2.14585 2.92452
Spine1  5.68292 0.49838 -4.27781
HEad  -26.3199 -3.75575 -2.01048
LeftShoulder1  2.04338 -4.31831 -19.7298
LeftArm  -1.86841 -44.8271 -47.7699
LeftForeArm  -4.43532 -33.1128 -7.58425
LeftHand  -0.021369 6.25746 1.4593
RightShoulder  0.822132 0.837469 11.8318
RightArm  -0.992223 47.2968 31.1114
RightForeArm  -26.0893 34.4247 9.03169
RightHand  -0.760143 9.72853 -6.22382
LeftUpLeg  -36.3275 21.8317 -7.55518
LeftLeg  24.5218 -8.38807 -3.81135
LeftFoot  5.40113 -0.320982 1.95797
LeftToes  1.68253e-010 -3.2327e-011 -2.69673e-012
795
root  -67.5211 37.8647 -2.37344 -61.1725 -85.4317 69.3187
RightUpLeg  -41.7521 -16.4125 -5.41139
RightLeg  38.087 4.59696 3.57213
RightFoot  -3.91399 -0.715735 10.5015
RightToes  5.82063e-011 0 -3.6325e-017
Spine  42.0325 -2.62523 3.7891
Spine1  6.14152 1.03785 -6.30312
HEad  -28.7713 -4.50587 -0.728739
LeftShoulder1  2.19885 -5.89774 -16.6678
LeftArm  -2.90711 -47.4857 -46.8738
LeftForeArm  -7.01657 -29.6482 -6.81512
LeftHand  -0.0266639 5.46239 2.43993
RightShoulder  0.913758 1.42802 11.4351
RightArm  0.164952 51.6088 31.1322
RightForeArm  -27.3789 28.3957 7.42333
RightHand  -0.689655 10.6188 -5.40387
LeftUpLeg  -39.5024 22.0287 -8.22465
LeftLeg  25.3257 -8.15008 -3.84116
LeftFoot  5.1258 -0.309016 1.92117
LeftToes  1.68253e-010 -3.2327e-011 -2.69673e-012
796
root  -67.7025 37.7726 -2.54459 -55.8928 -86.0614 66.9553
RightUpLeg  -43.9604 -16.4109 -2.2577
RightLeg  30.3468 5.23035 3.08163
RightFoot  -0.977581 -0.430037 5.14478
RightToes  5.82063e-011 0 -3.6325e-017
Spine  44.1976 -2.9742 4.97156
Spine1  6.45453 1.0524 -6.32899
HEad  -33.6223 -4.8244 0.215957
LeftShoulder1  2.25124 -6.5788 -15.518
LeftArm  -3.81122 -51.1641 -44.8319
LeftForeArm  -9.69816 -26.4449 -6.16518
LeftHand  -0.0633192 3.66763 3.15826
RightShoulder  0.958704 2.16301 9.64051
RightArm  0.516306 55.6776 31.2648
RightForeArm  -29.5178 22.3528 6.20559
RightHand  -0.63608 11.7724 -4.70789
LeftUpLeg  -43.1742 21.5844 -8.29357
LeftLeg  26.3329 -7.91941 -3.90517
LeftFoot  5.08604 -0.338867 2.13438
LeftToes  1.68253e-010 -3.2327e-011 -2.69673e-012
797
root  -67.7928 37.6386 -2.77677 -42.069 -85.0244 55.0319
RightUpLeg  -47.1285 -18.4247 -0.372854
RightLeg  31.5332 4.01115 2.41363
RightFoot  1.94528 0.302481 -2.66593
RightToes  5.82063e-011 0 -3.6325e-017
Spine  47.8836 -3.75471 6.03668
Spine1  5.72039 0.0132325 -5.49401
HEad  -37.922 -5.61861 -0.176153
LeftShoulder1  2.18097 -6.84359 -14.2299
LeftArm  -3.93932 -55.0962 -43.588
LeftForeArm  -12.3795 -23.3309 -5.62511
LeftHand  -0.0527814 4.094 2.93085
RightShoulder  0.944599 2.61822 7.92324
RightArm  -2.24927 58.8341 30.9334
RightForeArm  -28.8527 17.3406 5.97758
RightHand  -0.712488 12.0391 -5.15571
LeftUpLeg  -45.3497 18.9361 -8.27157
LeftLeg  26.9227 -6.87152 -3.43667
LeftFoot  5.43377 -0.328391 2.00646
LeftToes  1.68253e-010 -3.2327e-011 -2.69673e-012
798
root  -67.8601 37.1601 -2.95218 -31.2377 -82.5453 45.6014
RightUpLeg  -51.3015 -21.4592 -0.421246
RightLeg  36.5037 4.39095 3.22531
RightFoot  0.644386 0.220669 -2.06186
RightToes  5.82063e-011 0 -3.6325e-017
Spine  51.5841 -5.8448 7.81853
Spine1  3.91785 -1.36837 -6.70649
HEad  -39.0424 -7.62935 -0.513783
LeftShoulder1  2.17994 -8.16521 -11.4965
LeftArm  -7.43039 -58.1849 -41.3075
LeftForeArm  -12.5615 -21.0629 -5.40268
LeftHand  -0.0270629 5.43894 2.19034
RightShoulder  0.896409 2.35165 7.78999
RightArm  -6.87309 62.3602 27.2546
RightForeArm  -29.0192 12.9744 6.23202
RightHand  -0.952536 12.7935 -6.47213
LeftUpLeg  -48.3665 15.6682 -9.00241
LeftLeg  29.8687 -6.07917 -3.42619
LeftFoot  4.6126 -0.289279 1.84704
LeftToes  1.68253e-010 -3.2327e-011 -2.69673e-012
799
root  -68.0361 36.809 -3.14645 -26.2937 -80.4402 41.8032
RightUpLeg  -54.9349 -25.1133 0.865455
RightLeg  40.4185 5.16871 4.41851
RightFoot  -0.169876 0.379798 -3.912
RightToes  5.82063e-011 0 -3.6325e-017
Spine  54.1946 -6.87957 8.22166
Spine1  4.93089 -2.54897 -4.77625
HEad  -40.2333 -8.37333 -1.21212
LeftShoulder1  2.02884 -8.18893 -10.0511
LeftArm  -12.6647 -62.1805 -38.5506
LeftForeArm  -12.2066 -18.9254 -5.12367
LeftHand  -0.0153926 6.67218 1.68475
RightShoulder  0.885241 3.42917 5.07302
RightArm  -15.8467 65.5568 18.9221
RightForeArm  -30.8161 8.80152 5.8036
RightHand  -1.18794 14.0587 -7.50094
LeftUpLeg  -50.4736 13.2702 -9.38205
LeftLeg  31.9909 -5.76 -3.52259
LeftFoot  3.46505 -0.152528 1.01896
LeftToes  1.68253e-010 -3.2327e-011 -2.69673e-012
800
root  -68.2096 36.3969 -3.38415 -21.619 -78.1727 38.4251
RightUpLeg  -58.7729 -28.6193 2.41314
RightLeg  44.2027 5.58269 5.47508
RightFoot  -1.7081 0.49623 -6.00152
RightToes  5.82063e-011 0 -3.6325e-017
Spine  55.9116 -7.55445 8.65554
Spine1  6.14466 -3.96857 -1.91834
HEad  -45.4116 -8.33241 -1.53876
LeftShoulder1  1.91973 -8.4748 -8.55142
LeftArm  -19.8778 -65.6743 -33.5054
LeftForeArm  -12.0509 -16.6618 -4.38635
LeftHand  -0.0166421 6.30665 1.87847
RightShoulder  0.88674 5.38618 1.68673
RightArm  -25.8565 66.3206 9.31875
RightForeArm  -31.8337 5.77884 4.43968
RightHand  -1.01924 13.2944 -6.75301
LeftUpLeg  -53.163 11.0923 -9.95076
LeftLeg  34.6369 -5.47612 -3.70639
LeftFoot  3.34634 -0.252195 1.79841
LeftToes  1.68253e-010 -3.2327e-011 -2.69673e-012
801
root  -68.4577 36.0207 -3.63846 -21.9841 -76.7804 40.205
RightUpLeg  -62.203 -30.2837 3.20699
RightLeg  47.5003 5.55288 6.11615
RightFoot  -3.58299 0.430082 -6.68233
RightToes  5.82063e-011 0 -3.6325e-017
Spine  58.4431 -8.25424 8.95155
Spine1  4.89848 -4.66845 -1.42339
HEad  -46.7022 -9.82647 -2.14794
LeftShoulder1  1.77994 -9.11614 -6.47016
LeftArm  -25.3867 -67.4926 -30.1007
LeftForeArm  -11.7022 -15.1778 -3.2494
LeftHand  -0.0332906 6.82211 0.544589
RightShoulder  0.813846 5.51391 0.664757
RightArm  -32.9649 67.6247 3.47786
RightForeArm  -31.1186 3.10337 3.32346
RightHand  -1.07112 12.4305 -7.36839
LeftUpLeg  -55.5261 9.89074 -10.6763
LeftLeg  36.7675 -5.19101 -3.79367
LeftFoot  2.53753 -0.248868 1.92127
LeftToes  1.68253e-010 -3.2327e-011 -2.69673e-012
802
root  -68.6968 35.6807 -3.83881 -19.4543 -75.4653 39.3872
RightUpLeg  -65.9118 -31.7731 4.76162
RightLeg  50.2886 5.25713 6.38789
RightFoot  -4.76456 0.400385 -7.51132
RightToes  5.82063e-011 0 -3.6325e-017
Spine  60.5793 -10.9762 10.8361
Spine1  2.11915 -5.60365 -5.01734
HEad  -43.0452 -11.4684 0.467081
LeftShoulder1  1.54285 -11.1271 -2.3888
LeftArm  -30.7702 -67.0403 -24.24
LeftForeArm  -13.4168 -13.6581 -2.22376
LeftHand  -0.0554907 8.19179 -0.3531
RightShoulder  0.854216 5.55652 1.13176
RightArm  -37.2339 68.4093 1.44721
RightForeArm  -31.2678 1.3906 2.29554
RightHand  -1.21078 13.6917 -7.76997
LeftUpLeg  -58.1035 8.07251 -10.611
LeftLeg  38.7582 -4.57265 -3.56083
LeftFoot  1.82634 -0.268108 2.22187
LeftToes  1.68253e-010 -3.2327e-011 -2.69673e-012
